<?xml version="1.0" encoding="UTF-8"?>
<svg version="1.1" xmlns="http://www.w3.org/2000/svg" width="424" height="100">
<path d="M0 0 C0.66 0.66 1.32 1.32 2 2 C1.96712417 4.72869407 1.43602229 7.2966618 1 10 C1.94875 9.938125 2.8975 9.87625 3.875 9.8125 C4.90625 9.874375 5.9375 9.93625 7 10 C7.66 10.99 8.32 11.98 9 13 C9.763125 12.34 10.52625 11.68 11.3125 11 C15.71591341 8.06439106 20.91544265 7.99345007 26 9 C29.35597662 11.00399747 30.73325894 12.26476465 32.07421875 15.9609375 C32.27660156 17.08757813 32.47898437 18.21421875 32.6875 19.375 C32.914375 20.6021875 33.14125 21.829375 33.375 23.09375 C34.32847675 29.05297968 35.22675172 35.01414859 36 41 C36.66 41 37.32 41 38 41 C40.96267734 36.77618488 40.96267734 36.77618488 41.9375 31.9375 C41.15817586 30.32689677 40.30643299 28.75157939 39.4375 27.1875 C37.73978986 23.42301231 37.56141849 21.09342745 38 17 C39.35815253 13.72808708 40.49895506 11.50104494 43 9 C50.07874016 8.31496063 50.07874016 8.31496063 53.4375 10.8125 C56.61487599 15.26082638 56.44710367 19.74856417 56 25 C52.81040684 40.82239129 42.50774993 55.87567713 29.0625 64.8125 C21.74145186 69.03673051 14.47561036 71.05403672 6 70 C1.36111654 68.36780026 -1.63005804 66.3606932 -4 62 C-4.33526511 58.772363 -4.10364744 56.05851232 -3 53 C-0.375 50.8125 -0.375 50.8125 3 50 C6.83315266 50.5847182 9.13233645 51.1603256 11.9375 53.875 C13 56 13 56 13 60 C15.64 59.01 18.28 58.02 21 57 C19.6078125 56.38125 19.6078125 56.38125 18.1875 55.75 C14.00189985 52.95303425 13.56288832 49.01260212 12.58984375 44.30859375 C12.29787109 42.67083984 12.29787109 42.67083984 12 41 C11.79503906 39.91847656 11.59007812 38.83695313 11.37890625 37.72265625 C10.54875478 33.09098355 9.88875371 28.71513102 10 24 C8.35 24.33 6.7 24.66 5 25 C5.33 22.69 5.66 20.38 6 18 C3.36 18 0.72 18 -2 18 C-2.18175781 18.72703125 -2.36351562 19.4540625 -2.55078125 20.203125 C-4.3671875 27.46875 -6.18359375 34.734375 -8 42 C-5.03 42.33 -2.06 42.66 1 43 C0.796875 45.296875 0.796875 45.296875 0 48 C-2.109375 49.765625 -2.109375 49.765625 -4.75 51.25 C-5.61109375 51.75015625 -6.4721875 52.2503125 -7.359375 52.765625 C-13.37875416 55.57941763 -19.42916552 55.81409758 -25.75 53.8125 C-29.38155864 51.78720768 -30.63882082 50.91339014 -32 47 C-32 40.32738135 -29.98973716 34.50049495 -27.640625 28.31689453 C-26.24730706 24.49628062 -25.63688417 21.89055977 -27 18 C-27.53625 17.505 -28.0725 17.01 -28.625 16.5 C-29.07875 16.005 -29.5325 15.51 -30 15 C-29.6875 12.3125 -29.6875 12.3125 -29 10 C-27.68 10 -26.36 10 -25 10 C-19.56281563 9.44518527 -17.38216822 6.79690567 -13.83984375 2.8828125 C-9.72581136 -1.32730132 -5.45525624 -1.48779716 0 0 Z " fill="#000000" transform="translate(364,21)"/>
<path d="M0 0 C0.81765839 0.00091141 1.63531677 0.00182281 2.47775269 0.00276184 C3.32159515 -0.00152328 4.16543762 -0.00580841 5.03485107 -0.01022339 C6.82537947 -0.01597464 8.61593123 -0.01646112 10.40646362 -0.01213074 C13.12595519 -0.00899323 15.84433502 -0.03234049 18.56369019 -0.05778503 C20.30587632 -0.06006042 22.04806536 -0.06076041 23.79025269 -0.05973816 C24.99852219 -0.07355278 24.99852219 -0.07355278 26.23120117 -0.08764648 C33.10071159 -0.03234599 38.65051185 1.22569071 43.96994019 5.86604309 C46.93718579 9.37278789 47.3808104 11.57849796 47.31369019 16.20979309 C46.69400947 20.82297175 43.75104681 23.63751743 40.46994019 26.67854309 C38.03244019 28.30354309 38.03244019 28.30354309 35.03244019 28.30354309 C35.03244019 28.96354309 35.03244019 29.62354309 35.03244019 30.30354309 C35.65119019 30.57166809 36.26994019 30.83979309 36.90744019 31.11604309 C39.03244019 32.30354309 39.03244019 32.30354309 41.03244019 35.30354309 C41.90773826 40.55533157 41.36314219 45.25211297 38.43478394 49.73323059 C34.49453095 54.14543588 29.77578998 56.33714046 24.03244019 57.30354309 C22.46794013 57.38500066 20.90056685 57.42148148 19.33395386 57.41706848 C17.98311958 57.41695518 17.98311958 57.41695518 16.60499573 57.4168396 C15.16722527 57.40909767 15.16722527 57.40909767 13.70040894 57.40119934 C12.21278801 57.39907692 12.21278801 57.39907692 10.69511414 57.39691162 C7.53669176 57.39132727 4.37834103 57.37877761 1.21994019 57.36604309 C-0.92524108 57.36102607 -3.07042346 57.35646351 -5.21560669 57.35237122 C-10.46628206 57.34136297 -15.71691581 57.32464039 -20.96755981 57.30354309 C-21.29755981 55.65354309 -21.62755981 54.00354309 -21.96755981 52.30354309 C-21.36524536 51.9824054 -20.76293091 51.6612677 -20.1423645 51.33039856 C-16.94244276 48.34816345 -16.30956295 45.01604121 -15.17068481 40.87385559 C-14.93218811 40.04650909 -14.69369141 39.2191626 -14.44796753 38.366745 C-13.94717291 36.61861799 -13.45337127 34.8684746 -12.96609497 33.11653137 C-12.22100673 30.44092097 -11.45366727 27.77249317 -10.68240356 25.10432434 C-10.19800431 23.40287847 -9.71488843 21.7010666 -9.23318481 19.99885559 C-9.00512146 19.20286957 -8.77705811 18.40688354 -8.54208374 17.58677673 C-7.25859087 12.93905615 -6.23194991 8.87817776 -7.59255981 4.11604309 C-7.71630981 3.51791809 -7.84005981 2.91979309 -7.96755981 2.30354309 C-5.36829179 -0.29572493 -3.54247628 0.04473408 0 0 Z M16.03244019 9.30354309 C14.71244019 13.92354309 13.39244019 18.54354309 12.03244019 23.30354309 C18.4970491 23.90764622 18.4970491 23.90764622 21.40744019 21.86604309 C23.71229768 18.23146012 24.07575867 14.57474562 24.03244019 10.30354309 C23.70244019 9.97354309 23.37244019 9.64354309 23.03244019 9.30354309 C20.72244019 9.30354309 18.41244019 9.30354309 16.03244019 9.30354309 Z M9.03244019 33.30354309 C7.71244019 38.25354309 6.39244019 43.20354309 5.03244019 48.30354309 C10.72858587 48.95221833 10.72858587 48.95221833 15.46994019 46.30354309 C17.49698982 42.41160779 17.88852017 39.69310353 18.03244019 35.30354309 C17.37244019 34.64354309 16.71244019 33.98354309 16.03244019 33.30354309 C13.72244019 33.30354309 11.41244019 33.30354309 9.03244019 33.30354309 Z " fill="#000000" transform="translate(126.96755981445313,17.696456909179688)"/>
<path d="M0 0 C1.30177689 -0.01429802 1.30177689 -0.01429802 2.62985229 -0.02888489 C3.5694278 -0.02797348 4.5090033 -0.02706207 5.47705078 -0.02612305 C6.44136017 -0.03040817 7.40566956 -0.0346933 8.39920044 -0.03910828 C10.44190688 -0.04485845 12.48463381 -0.0453468 14.52734375 -0.04101562 C17.65286284 -0.03786148 20.77743047 -0.0612862 23.90283203 -0.08666992 C25.88590375 -0.08894342 27.86897802 -0.08964618 29.85205078 -0.08862305 C31.25534134 -0.10243767 31.25534134 -0.10243767 32.6869812 -0.11653137 C39.1538946 -0.07045142 39.1538946 -0.07045142 42.40161133 1.67138672 C43.79736328 3.2746582 43.79736328 3.2746582 44.07470703 5.2902832 C42.33344576 16.73857573 42.33344576 16.73857573 38.79736328 20.2746582 C35.92236328 20.5871582 35.92236328 20.5871582 32.79736328 20.2746582 C29.82676614 17.51624657 28.92676994 14.09726535 27.79736328 10.2746582 C24.49736328 9.9446582 21.19736328 9.6146582 17.79736328 9.2746582 C16.80736328 13.5646582 15.81736328 17.8546582 14.79736328 22.2746582 C18.66409199 21.61592328 18.66409199 21.61592328 20.67236328 19.7121582 C23.47554278 17.81588972 25.48599873 18.04888335 28.79736328 18.2746582 C30.09085864 22.69410069 29.41607447 25.61302883 28.04736328 29.9621582 C27.70189453 31.10040039 27.35642578 32.23864258 27.00048828 33.41137695 C25.79736328 36.2746582 25.79736328 36.2746582 22.79736328 38.2746582 C20.10986328 37.8996582 20.10986328 37.8996582 17.79736328 37.2746582 C17.13736328 35.2946582 16.47736328 33.3146582 15.79736328 31.2746582 C14.47736328 31.6046582 13.15736328 31.9346582 11.79736328 32.2746582 C10.47736328 37.2246582 9.15736328 42.1746582 7.79736328 47.2746582 C13.61461052 47.92449783 13.61461052 47.92449783 18.42236328 45.0871582 C19.20611328 44.1590332 19.98986328 43.2309082 20.79736328 42.2746582 C23.7338977 39.29789728 25.84953643 37.36241995 30.17236328 36.9621582 C31.03861328 37.0652832 31.90486328 37.1684082 32.79736328 37.2746582 C34.37974996 40.31598295 34.87172525 41.85973996 34.25830078 45.2824707 C33.89994141 46.31114258 33.54158203 47.33981445 33.17236328 48.3996582 C32.82947266 49.43348633 32.48658203 50.46731445 32.13330078 51.5324707 C30.65648925 54.56382069 29.635568 55.53471582 26.79736328 57.2746582 C24.58346558 57.65560913 24.58346558 57.65560913 22.15234375 57.6628418 C20.78104813 57.67702652 20.78104813 57.67702652 19.38204956 57.6914978 C18.40277496 57.68542511 17.42350037 57.67935242 16.41455078 57.6730957 C14.89862839 57.67740097 14.89862839 57.67740097 13.3520813 57.68179321 C11.21876464 57.68383273 9.08542922 57.67831074 6.95214844 57.66577148 C3.67747516 57.64968332 0.40402996 57.66564154 -2.87060547 57.68481445 C-4.94222279 57.68283266 -7.01383934 57.6789903 -9.08544922 57.6730957 C-10.06877228 57.6791684 -11.05209534 57.68524109 -12.06521606 57.6914978 C-12.97310883 57.68204132 -13.88100159 57.67258484 -14.81640625 57.6628418 C-15.61708527 57.66045502 -16.41776428 57.65806824 -17.2427063 57.65560913 C-17.88948334 57.52989532 -18.53626038 57.40418152 -19.20263672 57.2746582 C-19.86263672 56.2846582 -20.52263672 55.2946582 -21.20263672 54.2746582 C-20.43806152 53.45715088 -19.67348633 52.63964355 -18.88574219 51.79736328 C-15.84904658 48.13992331 -14.58558056 44.42928287 -13.27294922 39.91137695 C-13.03349579 39.11995804 -12.79404236 38.32853912 -12.54733276 37.51313782 C-12.04782609 35.84703864 -11.5557585 34.17869277 -11.07080078 32.50830078 C-10.3307768 29.97291637 -9.55755373 27.44937704 -8.78076172 24.92504883 C-8.29695231 23.29609562 -7.81511575 21.66655489 -7.33544922 20.03637695 C-6.99031784 18.92029305 -6.99031784 18.92029305 -6.63821411 17.78166199 C-5.25951158 12.91471894 -5.18457221 9.11472272 -6.10421753 4.13069153 C-6.13669586 3.51820053 -6.16917419 2.90570953 -6.20263672 2.2746582 C-3.80511793 -0.12286059 -3.26907646 0.01968494 0 0 Z " fill="#000000" transform="translate(21.20263671875,17.725341796875)"/>
<path d="M0 0 C1.22589844 -0.03738281 2.45179688 -0.07476563 3.71484375 -0.11328125 C7.0625 0.3125 7.0625 0.3125 9.50390625 2.0546875 C11.83090017 5.42562106 11.24407688 7.46367118 10.69140625 11.37890625 C9.73683122 15.83161338 8.36170763 20.11911093 6.90234375 24.4296875 C5.87603317 27.45211552 5.87603317 27.45211552 6.0625 31.3125 C8.04910808 30.86039573 8.04910808 30.86039573 10.0625 29.3125 C11.20495308 26.66635545 12.08028105 24.24605963 12.875 21.5 C13.10380859 20.78779297 13.33261719 20.07558594 13.56835938 19.34179688 C14.78961237 15.30456602 15.36714716 12.45399621 14.0625 8.3125 C13.876875 7.549375 13.69125 6.78625 13.5 6 C13.355625 5.443125 13.21125 4.88625 13.0625 4.3125 C18.25006823 1.08779542 21.88050091 0.1220047 28 0 C29.22589844 -0.03738281 30.45179688 -0.07476563 31.71484375 -0.11328125 C35.0625 0.3125 35.0625 0.3125 37.56640625 1.70703125 C40.35950254 6.57124855 38.68796205 11.7708959 37.40185547 16.99707031 C36.65269561 19.66281047 35.84212823 22.29974337 35 24.9375 C34.57750977 26.30068359 34.57750977 26.30068359 34.14648438 27.69140625 C33.46027317 29.90123894 32.76557008 32.10798541 32.0625 34.3125 C34.0425 33.8175 34.0425 33.8175 36.0625 33.3125 C35.89118429 37.68105051 35.48860714 39.8099121 32.625 43.1875 C28.52627428 46.16301723 24.02170803 46.59498653 19.0625 46.3125 C15.05153562 45.32472519 11.6973426 43.56730556 9.0625 40.3125 C8.299375 40.951875 7.53625 41.59125 6.75 42.25 C1.87732807 45.98949241 -3.01942535 45.82871835 -8.9375 45.3125 C-13.04416477 43.81916735 -16.03318593 42.3327186 -17.9375 38.3125 C-18.87647247 31.27020647 -16.98620854 25.54815518 -14.62890625 18.98535156 C-13.24771068 15.01053455 -12.6501547 12.35739746 -13.9375 8.3125 C-14.123125 7.549375 -14.30875 6.78625 -14.5 6 C-14.644375 5.443125 -14.78875 4.88625 -14.9375 4.3125 C-9.74993177 1.08779542 -6.11949909 0.1220047 0 0 Z " fill="#000000" transform="translate(291.9375,29.6875)"/>
<path d="M0 0 C3.20434314 2.34132803 4.3294513 4.4336664 5.56640625 8.14453125 C5.96012952 13.8324264 4.86185011 18.27819305 3.06640625 23.58203125 C2.82792969 24.31357422 2.58945312 25.04511719 2.34375 25.79882812 C1.76044453 27.58374285 1.1647069 29.36458682 0.56640625 31.14453125 C1.88640625 30.48453125 3.20640625 29.82453125 4.56640625 29.14453125 C5.56640625 30.14453125 5.56640625 30.14453125 5.94140625 32.39453125 C5.40591221 36.32148752 3.54253809 37.64187493 0.56640625 40.14453125 C-3.90846627 42.83132709 -8.34502358 42.83477894 -13.43359375 42.14453125 C-15.77034841 41.04768722 -17.39672516 39.77402612 -19.43359375 38.14453125 C-22.19950711 38.14453125 -23.26277579 39.49997219 -25.43359375 41.14453125 C-31.03363498 43.01121166 -36.48537226 43.03008647 -41.87109375 40.58203125 C-45.07999435 37.52966239 -46.3062301 35.44260515 -47.43359375 31.14453125 C-47.33117053 27.16368226 -46.6736699 23.67791883 -44.12890625 20.53125 C-37.72162516 14.90413008 -31.53474509 14.74005151 -23.43359375 15.14453125 C-21.06635964 15.38492163 -18.7781681 15.72771803 -16.43359375 16.14453125 C-15.03621748 12.38908254 -13.87442267 9.17056303 -14.43359375 5.14453125 C-15.42359375 4.48453125 -16.41359375 3.82453125 -17.43359375 3.14453125 C-17.30984375 4.50578125 -17.30984375 4.50578125 -17.18359375 5.89453125 C-17.43359375 9.14453125 -17.43359375 9.14453125 -18.99609375 11.45703125 C-22.20778764 13.68051163 -24.54853925 14.00821355 -28.43359375 14.14453125 C-31.60697721 13.22777603 -33.09700212 12.48112288 -35.43359375 10.14453125 C-35.93359375 6.83203125 -35.93359375 6.83203125 -35.43359375 3.14453125 C-27.280905 -5.37873426 -10.11603077 -5.60242017 0 0 Z M-25.43359375 25.14453125 C-25.60046823 27.72807343 -25.60046823 27.72807343 -25.43359375 30.14453125 C-24.11359375 30.14453125 -22.79359375 30.14453125 -21.43359375 30.14453125 C-20.44359375 27.83453125 -19.45359375 25.52453125 -18.43359375 23.14453125 C-22.38817223 22.79629318 -22.38817223 22.79629318 -25.43359375 25.14453125 Z " fill="#010101" transform="translate(264.43359375,32.85546875)"/>
<path d="M0 0 C2.70720147 4.01713766 2.80891026 7.1693846 1.9375 11.875 C0.10593267 15.99602649 -1.41284765 17.50020057 -5.3125 19.75 C-11.87056003 21.89013028 -19.25746043 21.09798067 -26.0625 20.875 C-25.7325 22.525 -25.4025 24.175 -25.0625 25.875 C-18.27727495 28.04627202 -11.75438527 26.57452642 -5.0625 24.875 C-4.0770838 27.37644113 -3.73881034 29.09952959 -4.79296875 31.625 C-8.07588931 36.82389126 -12.1336187 39.40149862 -18.0625 40.875 C-26.02806699 41.83126237 -33.2583475 41.41110167 -40.0625 36.875 C-44.41385967 32.52364033 -46.14912777 28.33465409 -46.4375 22.25 C-46.24349197 14.5923891 -44.03741941 7.53158608 -38.75 1.875 C-28.28856329 -7.4887699 -11.35482734 -7.87885978 0 0 Z M-20.0625 2.875 C-23.0923864 6.8517259 -24.58746041 9.88708429 -25.0625 14.875 C-21.88399863 13.9549075 -20.41072284 13.46064751 -18.6875 10.5625 C-17.99936196 7.60350644 -18.23493269 5.77148559 -19.0625 2.875 C-19.3925 2.875 -19.7225 2.875 -20.0625 2.875 Z " fill="#000000" transform="translate(218.0625,34.125)"/>
<path d="M0 0 C1.04994141 -0.02900391 2.09988281 -0.05800781 3.18164062 -0.08789062 C4.19291016 -0.09626953 5.20417969 -0.10464844 6.24609375 -0.11328125 C7.16962646 -0.12786377 8.09315918 -0.14244629 9.04467773 -0.1574707 C12.28449733 0.4472663 13.47275093 1.83973734 15.5625 4.3125 C14.48848892 7.22767292 13.78439824 9.09060176 11.5625 11.3125 C8.6626331 12.28657763 5.98204268 12.44097378 2.9375 12.4453125 C1.63039063 12.44724609 1.63039063 12.44724609 0.296875 12.44921875 C-0.60546875 12.44535156 -1.5078125 12.44148438 -2.4375 12.4375 C-3.33984375 12.44136719 -4.2421875 12.44523437 -5.171875 12.44921875 C-6.04328125 12.44792969 -6.9146875 12.44664063 -7.8125 12.4453125 C-8.60398437 12.44418457 -9.39546875 12.44305664 -10.2109375 12.44189453 C-12.40751874 12.31424233 -14.32738713 11.91891657 -16.4375 11.3125 C-17.77938034 5.94497863 -17.77938034 5.94497863 -16.1875 3 C-11.97132101 -1.06560116 -5.47407351 0.05022086 0 0 Z " fill="#000000" transform="translate(86.4375,38.6875)"/>
</svg>
